# xmcd
#
# Track frame offsets: 
#        150
#        10751
#        22716
#        39469
#        55596
#        68180
#        86377
#        102626
#        127844
#
# Disc length: 1882 seconds
#
# Revision: 0
# Processed by: cddbd v1.5.2PL0 Copyright (c) Steve Scherf et al.
# Submitted via: ExactAudioCopy v1.0b4
#
DISCID=60075809
DTITLE=Solomon King - Train
DYEAR=2013
DGENRE=Blues
TTITLE0=Baby Does Me Good
TTITLE1=Bad To Me
TTITLE2=Coffee Song
TTITLE3=Slo Blues
TTITLE4=Great Wall
TTITLE5=Country Song
TTITLE6=My Baby's Love
TTITLE7=Train
TTITLE8=Blue Angel
EXTD=
EXTT0=
EXTT1=
EXTT2=
EXTT3=
EXTT4=
EXTT5=
EXTT6=
EXTT7=
EXTT8=
PLAYORDER=
